<mxfile host="app.diagrams.net" modified="2023-04-02T12:04:04.787Z" agent="5.0 (Windows NT 10.0; Win64; x64) AppleWebKit/537.36 (KHTML, like Gecko) Chrome/111.0.0.0 Safari/537.36 Edg/111.0.1661.54" etag="N8k8SH6y_pmmU7LXRLJH" version="21.0.8" type="github">
  <diagram name="第 1 页" id="b4Ed2LwabQIBzOSei9t2">
    <mxGraphModel dx="794" dy="508" grid="1" gridSize="10" guides="1" tooltips="1" connect="1" arrows="1" fold="1" page="1" pageScale="1" pageWidth="827" pageHeight="1169" math="0" shadow="0">
      <root>
        <mxCell id="0" />
        <mxCell id="1" parent="0" />
        <mxCell id="wm9mHPLaVxJcZAKre-H_-86" value="" style="rounded=1;whiteSpace=wrap;html=1;fillColor=#f8cecc;strokeColor=none;opacity=60;arcSize=5;" vertex="1" parent="1">
          <mxGeometry x="72" y="163" width="608" height="67" as="geometry" />
        </mxCell>
        <mxCell id="wm9mHPLaVxJcZAKre-H_-83" value="" style="rounded=1;whiteSpace=wrap;html=1;fillColor=#99CCFF;strokeColor=none;opacity=60;arcSize=5;" vertex="1" parent="1">
          <mxGeometry x="72" y="230" width="488" height="70" as="geometry" />
        </mxCell>
        <mxCell id="wm9mHPLaVxJcZAKre-H_-3" value="Hongkong" style="text;html=1;strokeColor=none;fillColor=none;align=center;verticalAlign=middle;whiteSpace=wrap;rounded=0;" vertex="1" parent="1">
          <mxGeometry x="80" y="178" width="60" height="30" as="geometry" />
        </mxCell>
        <mxCell id="wm9mHPLaVxJcZAKre-H_-7" value="" style="group" vertex="1" connectable="0" parent="1">
          <mxGeometry x="160" y="166" width="80" height="54" as="geometry" />
        </mxCell>
        <mxCell id="wm9mHPLaVxJcZAKre-H_-4" value="船自身属性" style="text;html=1;strokeColor=none;fillColor=none;align=center;verticalAlign=middle;whiteSpace=wrap;rounded=0;" vertex="1" parent="wm9mHPLaVxJcZAKre-H_-7">
          <mxGeometry width="80" height="30" as="geometry" />
        </mxCell>
        <mxCell id="wm9mHPLaVxJcZAKre-H_-5" value="&lt;font color=&quot;#ff0000&quot;&gt;区域属性&lt;/font&gt;" style="text;html=1;strokeColor=none;fillColor=none;align=center;verticalAlign=middle;whiteSpace=wrap;rounded=0;" vertex="1" parent="wm9mHPLaVxJcZAKre-H_-7">
          <mxGeometry x="4" y="24" width="60" height="30" as="geometry" />
        </mxCell>
        <mxCell id="wm9mHPLaVxJcZAKre-H_-8" value="" style="group" vertex="1" connectable="0" parent="1">
          <mxGeometry x="162" y="230" width="110" height="54" as="geometry" />
        </mxCell>
        <mxCell id="wm9mHPLaVxJcZAKre-H_-9" value="船自身属性" style="text;html=1;strokeColor=none;fillColor=none;align=center;verticalAlign=middle;whiteSpace=wrap;rounded=0;" vertex="1" parent="wm9mHPLaVxJcZAKre-H_-8">
          <mxGeometry width="80" height="30" as="geometry" />
        </mxCell>
        <mxCell id="wm9mHPLaVxJcZAKre-H_-10" value="&lt;font color=&quot;#0000ff&quot;&gt;区域属性修正&lt;/font&gt;" style="text;html=1;strokeColor=none;fillColor=none;align=left;verticalAlign=middle;whiteSpace=wrap;rounded=0;" vertex="1" parent="wm9mHPLaVxJcZAKre-H_-8">
          <mxGeometry x="7" y="24" width="106" height="30" as="geometry" />
        </mxCell>
        <mxCell id="wm9mHPLaVxJcZAKre-H_-16" value="&lt;font color=&quot;#3333ff&quot;&gt;Europe&lt;/font&gt;" style="text;html=1;strokeColor=none;fillColor=none;align=center;verticalAlign=middle;whiteSpace=wrap;rounded=0;" vertex="1" parent="1">
          <mxGeometry x="72" y="242" width="60" height="30" as="geometry" />
        </mxCell>
        <mxCell id="wm9mHPLaVxJcZAKre-H_-19" value="" style="group" vertex="1" connectable="0" parent="1">
          <mxGeometry x="80" y="300" width="550" height="70" as="geometry" />
        </mxCell>
        <mxCell id="wm9mHPLaVxJcZAKre-H_-84" value="" style="rounded=1;whiteSpace=wrap;html=1;fillColor=#d5e8d4;strokeColor=none;opacity=60;arcSize=5;" vertex="1" parent="wm9mHPLaVxJcZAKre-H_-19">
          <mxGeometry x="-8" y="-3.5" width="488" height="70" as="geometry" />
        </mxCell>
        <mxCell id="wm9mHPLaVxJcZAKre-H_-12" value="" style="group" vertex="1" connectable="0" parent="wm9mHPLaVxJcZAKre-H_-19">
          <mxGeometry x="80" width="90" height="63.00000000000001" as="geometry" />
        </mxCell>
        <mxCell id="wm9mHPLaVxJcZAKre-H_-13" value="船自身属性" style="text;html=1;strokeColor=none;fillColor=none;align=center;verticalAlign=middle;whiteSpace=wrap;rounded=0;" vertex="1" parent="wm9mHPLaVxJcZAKre-H_-12">
          <mxGeometry width="80" height="35" as="geometry" />
        </mxCell>
        <mxCell id="wm9mHPLaVxJcZAKre-H_-14" value="&lt;font color=&quot;#00cc00&quot;&gt;区域属性修正&amp;nbsp;&lt;/font&gt;" style="text;html=1;strokeColor=none;fillColor=none;align=center;verticalAlign=middle;whiteSpace=wrap;rounded=0;" vertex="1" parent="wm9mHPLaVxJcZAKre-H_-12">
          <mxGeometry x="4" y="28" width="86" height="35" as="geometry" />
        </mxCell>
        <mxCell id="wm9mHPLaVxJcZAKre-H_-17" value="&lt;font color=&quot;#00cc00&quot;&gt;Caribbean&lt;/font&gt;" style="text;html=1;strokeColor=none;fillColor=none;align=center;verticalAlign=middle;whiteSpace=wrap;rounded=0;" vertex="1" parent="wm9mHPLaVxJcZAKre-H_-19">
          <mxGeometry y="14" width="60" height="35" as="geometry" />
        </mxCell>
        <mxCell id="wm9mHPLaVxJcZAKre-H_-31" value="&lt;font color=&quot;#00cc00&quot;&gt;M_C&lt;/font&gt;" style="label;whiteSpace=wrap;html=1;align=center;verticalAlign=bottom;spacingLeft=0;spacingBottom=4;imageAlign=center;imageVerticalAlign=top;image=img/clipart/Gear_128x128.png;strokeColor=none;imageWidth=24;imageHeight=24;fillColor=none;" vertex="1" parent="wm9mHPLaVxJcZAKre-H_-19">
          <mxGeometry x="212" y="10" width="60" height="51.83" as="geometry" />
        </mxCell>
        <mxCell id="wm9mHPLaVxJcZAKre-H_-43" value="" style="group" vertex="1" connectable="0" parent="wm9mHPLaVxJcZAKre-H_-19">
          <mxGeometry x="320" y="14.333333333333334" width="60" height="35" as="geometry" />
        </mxCell>
        <mxCell id="wm9mHPLaVxJcZAKre-H_-44" style="edgeStyle=orthogonalEdgeStyle;rounded=0;orthogonalLoop=1;jettySize=auto;html=1;" edge="1" parent="wm9mHPLaVxJcZAKre-H_-43">
          <mxGeometry relative="1" as="geometry">
            <mxPoint y="17.5" as="targetPoint" />
          </mxGeometry>
        </mxCell>
        <mxCell id="wm9mHPLaVxJcZAKre-H_-45" value="&lt;font color=&quot;#00cc00&quot;&gt;Price_C&lt;/font&gt;" style="text;html=1;strokeColor=none;fillColor=none;align=center;verticalAlign=middle;whiteSpace=wrap;rounded=0;" vertex="1" parent="wm9mHPLaVxJcZAKre-H_-43">
          <mxGeometry width="60" height="35" as="geometry" />
        </mxCell>
        <mxCell id="wm9mHPLaVxJcZAKre-H_-49" value="" style="endArrow=classic;html=1;rounded=0;exitX=1;exitY=0.5;exitDx=0;exitDy=0;fillColor=#d5e8d4;strokeColor=#82b366;" edge="1" parent="wm9mHPLaVxJcZAKre-H_-19">
          <mxGeometry width="50" height="50" relative="1" as="geometry">
            <mxPoint x="272" y="30.833333333333258" as="sourcePoint" />
            <mxPoint x="320" y="30.833333333333258" as="targetPoint" />
          </mxGeometry>
        </mxCell>
        <mxCell id="wm9mHPLaVxJcZAKre-H_-65" value="" style="group" vertex="1" connectable="0" parent="wm9mHPLaVxJcZAKre-H_-19">
          <mxGeometry x="410" y="14.333333333333334" width="60" height="35" as="geometry" />
        </mxCell>
        <mxCell id="wm9mHPLaVxJcZAKre-H_-66" style="edgeStyle=orthogonalEdgeStyle;rounded=0;orthogonalLoop=1;jettySize=auto;html=1;" edge="1" parent="wm9mHPLaVxJcZAKre-H_-65">
          <mxGeometry relative="1" as="geometry">
            <mxPoint y="17.5" as="targetPoint" />
          </mxGeometry>
        </mxCell>
        <mxCell id="wm9mHPLaVxJcZAKre-H_-67" value="&lt;font color=&quot;#00cc00&quot;&gt;Price_CH&lt;/font&gt;" style="text;html=1;strokeColor=none;fillColor=none;align=center;verticalAlign=middle;whiteSpace=wrap;rounded=0;" vertex="1" parent="wm9mHPLaVxJcZAKre-H_-65">
          <mxGeometry width="60" height="35" as="geometry" />
        </mxCell>
        <mxCell id="wm9mHPLaVxJcZAKre-H_-75" value="" style="endArrow=classic;html=1;rounded=0;exitX=1;exitY=0.5;exitDx=0;exitDy=0;fillColor=#d5e8d4;strokeColor=#82b366;" edge="1" parent="wm9mHPLaVxJcZAKre-H_-19" source="wm9mHPLaVxJcZAKre-H_-45" target="wm9mHPLaVxJcZAKre-H_-67">
          <mxGeometry width="50" height="50" relative="1" as="geometry">
            <mxPoint x="200" y="-35" as="sourcePoint" />
            <mxPoint x="250" y="-93.33333333333334" as="targetPoint" />
          </mxGeometry>
        </mxCell>
        <mxCell id="wm9mHPLaVxJcZAKre-H_-30" value="&lt;font color=&quot;#3333ff&quot;&gt;M_E&lt;/font&gt;" style="label;whiteSpace=wrap;html=1;align=center;verticalAlign=bottom;spacingLeft=0;spacingBottom=4;imageAlign=center;imageVerticalAlign=top;image=img/clipart/Gear_128x128.png;strokeColor=none;imageWidth=24;imageHeight=24;fillColor=none;" vertex="1" parent="1">
          <mxGeometry x="298" y="231" width="52" height="52" as="geometry" />
        </mxCell>
        <mxCell id="wm9mHPLaVxJcZAKre-H_-34" value="" style="endArrow=classic;html=1;rounded=0;entryX=0;entryY=0.5;entryDx=0;entryDy=0;fillColor=#dae8fc;strokeColor=#3333FF;" edge="1" parent="1">
          <mxGeometry width="50" height="50" relative="1" as="geometry">
            <mxPoint x="251" y="257" as="sourcePoint" />
            <mxPoint x="293" y="257" as="targetPoint" />
          </mxGeometry>
        </mxCell>
        <mxCell id="wm9mHPLaVxJcZAKre-H_-35" value="" style="endArrow=classic;html=1;rounded=0;entryX=0;entryY=0.5;entryDx=0;entryDy=0;fillColor=#d5e8d4;strokeColor=#82b366;" edge="1" parent="1">
          <mxGeometry width="50" height="50" relative="1" as="geometry">
            <mxPoint x="251" y="331" as="sourcePoint" />
            <mxPoint x="293" y="331" as="targetPoint" />
          </mxGeometry>
        </mxCell>
        <mxCell id="wm9mHPLaVxJcZAKre-H_-40" value="" style="group" vertex="1" connectable="0" parent="1">
          <mxGeometry x="398" y="242" width="60" height="30" as="geometry" />
        </mxCell>
        <mxCell id="wm9mHPLaVxJcZAKre-H_-38" style="edgeStyle=orthogonalEdgeStyle;rounded=0;orthogonalLoop=1;jettySize=auto;html=1;fillColor=#dae8fc;strokeColor=#3333FF;" edge="1" parent="wm9mHPLaVxJcZAKre-H_-40" source="wm9mHPLaVxJcZAKre-H_-30">
          <mxGeometry relative="1" as="geometry">
            <mxPoint y="15" as="targetPoint" />
          </mxGeometry>
        </mxCell>
        <mxCell id="wm9mHPLaVxJcZAKre-H_-39" value="&lt;font color=&quot;#3333ff&quot;&gt;Price_E&lt;/font&gt;" style="text;html=1;strokeColor=none;fillColor=none;align=center;verticalAlign=middle;whiteSpace=wrap;rounded=0;" vertex="1" parent="wm9mHPLaVxJcZAKre-H_-40">
          <mxGeometry width="60" height="30" as="geometry" />
        </mxCell>
        <mxCell id="wm9mHPLaVxJcZAKre-H_-56" value="" style="group" vertex="1" connectable="0" parent="1">
          <mxGeometry x="490" y="242" width="60" height="30" as="geometry" />
        </mxCell>
        <mxCell id="wm9mHPLaVxJcZAKre-H_-57" style="edgeStyle=orthogonalEdgeStyle;rounded=0;orthogonalLoop=1;jettySize=auto;html=1;" edge="1" parent="wm9mHPLaVxJcZAKre-H_-56">
          <mxGeometry relative="1" as="geometry">
            <mxPoint y="15" as="targetPoint" />
          </mxGeometry>
        </mxCell>
        <mxCell id="wm9mHPLaVxJcZAKre-H_-58" value="&lt;font color=&quot;#3333ff&quot;&gt;Price_EH&lt;/font&gt;" style="text;html=1;strokeColor=none;fillColor=none;align=center;verticalAlign=middle;whiteSpace=wrap;rounded=0;" vertex="1" parent="wm9mHPLaVxJcZAKre-H_-56">
          <mxGeometry width="60" height="30" as="geometry" />
        </mxCell>
        <mxCell id="wm9mHPLaVxJcZAKre-H_-68" value="" style="endArrow=classic;html=1;rounded=0;exitX=1;exitY=0.5;exitDx=0;exitDy=0;fillColor=#dae8fc;strokeColor=#3333FF;" edge="1" parent="1" source="wm9mHPLaVxJcZAKre-H_-39" target="wm9mHPLaVxJcZAKre-H_-58">
          <mxGeometry width="50" height="50" relative="1" as="geometry">
            <mxPoint x="280" y="270" as="sourcePoint" />
            <mxPoint x="330" y="220" as="targetPoint" />
          </mxGeometry>
        </mxCell>
        <mxCell id="wm9mHPLaVxJcZAKre-H_-78" value="Price_H" style="text;html=1;strokeColor=none;fillColor=none;align=center;verticalAlign=middle;whiteSpace=wrap;rounded=0;" vertex="1" parent="1">
          <mxGeometry x="605" y="178" width="60" height="30" as="geometry" />
        </mxCell>
        <mxCell id="wm9mHPLaVxJcZAKre-H_-79" value="" style="endArrow=classic;html=1;rounded=0;exitX=1;exitY=0.5;exitDx=0;exitDy=0;entryX=0;entryY=0.5;entryDx=0;entryDy=0;strokeColor=#3333FF;fillColor=#dae8fc;strokeWidth=1.2;" edge="1" parent="1" source="wm9mHPLaVxJcZAKre-H_-58" target="wm9mHPLaVxJcZAKre-H_-78">
          <mxGeometry width="50" height="50" relative="1" as="geometry">
            <mxPoint x="340" y="270" as="sourcePoint" />
            <mxPoint x="390" y="220" as="targetPoint" />
          </mxGeometry>
        </mxCell>
        <mxCell id="wm9mHPLaVxJcZAKre-H_-80" value="" style="endArrow=classic;html=1;rounded=0;exitX=1;exitY=0.5;exitDx=0;exitDy=0;entryX=0;entryY=0.5;entryDx=0;entryDy=0;fillColor=#d5e8d4;strokeColor=#00CC00;strokeWidth=1.2;" edge="1" parent="1" source="wm9mHPLaVxJcZAKre-H_-67" target="wm9mHPLaVxJcZAKre-H_-78">
          <mxGeometry width="50" height="50" relative="1" as="geometry">
            <mxPoint x="340" y="270" as="sourcePoint" />
            <mxPoint x="390" y="220" as="targetPoint" />
          </mxGeometry>
        </mxCell>
        <mxCell id="wm9mHPLaVxJcZAKre-H_-81" value="" style="endArrow=classic;html=1;rounded=0;exitX=1;exitY=0.5;exitDx=0;exitDy=0;entryX=0;entryY=0.5;entryDx=0;entryDy=0;fillColor=#ffe6cc;strokeColor=#FF8000;strokeWidth=1.2;" edge="1" parent="1" source="wm9mHPLaVxJcZAKre-H_-64" target="wm9mHPLaVxJcZAKre-H_-78">
          <mxGeometry width="50" height="50" relative="1" as="geometry">
            <mxPoint x="340" y="270" as="sourcePoint" />
            <mxPoint x="390" y="220" as="targetPoint" />
          </mxGeometry>
        </mxCell>
        <mxCell id="wm9mHPLaVxJcZAKre-H_-87" value="" style="endArrow=classic;html=1;rounded=0;entryX=0;entryY=0.5;entryDx=0;entryDy=0;exitX=1;exitY=1;exitDx=0;exitDy=0;dashed=1;dashPattern=12 12;strokeColor=#FF0000;" edge="1" parent="1" source="wm9mHPLaVxJcZAKre-H_-4" target="wm9mHPLaVxJcZAKre-H_-78">
          <mxGeometry width="50" height="50" relative="1" as="geometry">
            <mxPoint x="250" y="90" as="sourcePoint" />
            <mxPoint x="390" y="220" as="targetPoint" />
          </mxGeometry>
        </mxCell>
        <mxCell id="wm9mHPLaVxJcZAKre-H_-46" value="" style="group" vertex="1" connectable="0" parent="1">
          <mxGeometry x="402" y="382" width="158" height="45" as="geometry" />
        </mxCell>
        <mxCell id="wm9mHPLaVxJcZAKre-H_-85" value="" style="rounded=1;whiteSpace=wrap;html=1;fillColor=#ffe6cc;strokeColor=none;opacity=60;arcSize=5;" vertex="1" parent="wm9mHPLaVxJcZAKre-H_-46">
          <mxGeometry x="-330" y="-16" width="488" height="65" as="geometry" />
        </mxCell>
        <mxCell id="wm9mHPLaVxJcZAKre-H_-47" style="edgeStyle=orthogonalEdgeStyle;rounded=0;orthogonalLoop=1;jettySize=auto;html=1;" edge="1" parent="wm9mHPLaVxJcZAKre-H_-46">
          <mxGeometry relative="1" as="geometry">
            <mxPoint y="15" as="targetPoint" />
          </mxGeometry>
        </mxCell>
        <mxCell id="wm9mHPLaVxJcZAKre-H_-48" value="&lt;font color=&quot;#ff8000&quot;&gt;Price_U&lt;/font&gt;" style="text;html=1;strokeColor=none;fillColor=none;align=center;verticalAlign=middle;whiteSpace=wrap;rounded=0;" vertex="1" parent="wm9mHPLaVxJcZAKre-H_-46">
          <mxGeometry width="60" height="30" as="geometry" />
        </mxCell>
        <mxCell id="wm9mHPLaVxJcZAKre-H_-62" value="" style="group" vertex="1" connectable="0" parent="1">
          <mxGeometry x="490" y="382" width="60" height="30" as="geometry" />
        </mxCell>
        <mxCell id="wm9mHPLaVxJcZAKre-H_-63" style="edgeStyle=orthogonalEdgeStyle;rounded=0;orthogonalLoop=1;jettySize=auto;html=1;" edge="1" parent="wm9mHPLaVxJcZAKre-H_-62">
          <mxGeometry relative="1" as="geometry">
            <mxPoint y="15" as="targetPoint" />
          </mxGeometry>
        </mxCell>
        <mxCell id="wm9mHPLaVxJcZAKre-H_-64" value="&lt;font color=&quot;#ff8000&quot;&gt;Price_UH&lt;/font&gt;" style="text;html=1;strokeColor=none;fillColor=none;align=center;verticalAlign=middle;whiteSpace=wrap;rounded=0;" vertex="1" parent="wm9mHPLaVxJcZAKre-H_-62">
          <mxGeometry width="60" height="30" as="geometry" />
        </mxCell>
        <mxCell id="wm9mHPLaVxJcZAKre-H_-24" value="&lt;font color=&quot;#ff8000&quot;&gt;USA&lt;/font&gt;" style="text;html=1;strokeColor=none;fillColor=none;align=center;verticalAlign=middle;whiteSpace=wrap;rounded=0;" vertex="1" parent="1">
          <mxGeometry x="80" y="382" width="30" height="30" as="geometry" />
        </mxCell>
        <mxCell id="wm9mHPLaVxJcZAKre-H_-21" value="" style="group" vertex="1" connectable="0" parent="1">
          <mxGeometry x="160" y="370" width="90" height="54" as="geometry" />
        </mxCell>
        <mxCell id="wm9mHPLaVxJcZAKre-H_-22" value="船自身属性" style="text;html=1;strokeColor=none;fillColor=none;align=center;verticalAlign=middle;whiteSpace=wrap;rounded=0;" vertex="1" parent="wm9mHPLaVxJcZAKre-H_-21">
          <mxGeometry width="80" height="30" as="geometry" />
        </mxCell>
        <mxCell id="wm9mHPLaVxJcZAKre-H_-23" value="&lt;font color=&quot;#ff8000&quot;&gt;区域属性修正&amp;nbsp;&lt;/font&gt;" style="text;html=1;strokeColor=none;fillColor=none;align=center;verticalAlign=middle;whiteSpace=wrap;rounded=0;" vertex="1" parent="wm9mHPLaVxJcZAKre-H_-21">
          <mxGeometry x="4" y="24" width="86" height="30" as="geometry" />
        </mxCell>
        <mxCell id="wm9mHPLaVxJcZAKre-H_-36" value="" style="endArrow=classic;html=1;rounded=0;entryX=0;entryY=0.5;entryDx=0;entryDy=0;fillColor=#ffe6cc;strokeColor=#d79b00;" edge="1" parent="1">
          <mxGeometry width="50" height="50" relative="1" as="geometry">
            <mxPoint x="251" y="397" as="sourcePoint" />
            <mxPoint x="293" y="397" as="targetPoint" />
          </mxGeometry>
        </mxCell>
        <mxCell id="wm9mHPLaVxJcZAKre-H_-54" style="edgeStyle=orthogonalEdgeStyle;rounded=0;orthogonalLoop=1;jettySize=auto;html=1;fillColor=#ffe6cc;strokeColor=#d79b00;" edge="1" parent="1">
          <mxGeometry relative="1" as="geometry">
            <mxPoint x="400" y="394" as="targetPoint" />
            <mxPoint x="350" y="394" as="sourcePoint" />
          </mxGeometry>
        </mxCell>
        <mxCell id="wm9mHPLaVxJcZAKre-H_-76" value="" style="endArrow=classic;html=1;rounded=0;exitX=1;exitY=0.5;exitDx=0;exitDy=0;fillColor=#ffe6cc;strokeColor=#d79b00;" edge="1" parent="1" source="wm9mHPLaVxJcZAKre-H_-48" target="wm9mHPLaVxJcZAKre-H_-64">
          <mxGeometry width="50" height="50" relative="1" as="geometry">
            <mxPoint x="280" y="270" as="sourcePoint" />
            <mxPoint x="330" y="220" as="targetPoint" />
          </mxGeometry>
        </mxCell>
        <mxCell id="wm9mHPLaVxJcZAKre-H_-32" value="&lt;font color=&quot;#ff8000&quot;&gt;M_U&lt;/font&gt;" style="label;whiteSpace=wrap;html=1;align=center;verticalAlign=bottom;spacingLeft=0;spacingBottom=4;imageAlign=center;imageVerticalAlign=top;image=img/clipart/Gear_128x128.png;strokeColor=none;imageWidth=24;imageHeight=24;fillColor=none;" vertex="1" parent="1">
          <mxGeometry x="291" y="375" width="60" height="56" as="geometry" />
        </mxCell>
      </root>
    </mxGraphModel>
  </diagram>
</mxfile>
